<svg xmlns="http://www.w3.org/2000/svg" xmlns:xlink="http://www.w3.org/1999/xlink" width="30" viewBox="0 0 30 30" height="30" version="1.0"><defs><g id="b"><path d="M 4.0625 0.140625 C 1.632812 0.140625 0.421875 -1.140625 0.421875 -3.703125 C 0.421875 -6.285156 1.632812 -7.578125 4.0625 -7.578125 C 4.8125 -7.578125 5.597656 -7.394531 6.421875 -7.03125 L 6.421875 -5.46875 C 5.710938 -5.9375 5.007812 -6.171875 4.3125 -6.171875 C 3.625 -6.171875 3.113281 -5.976562 2.78125 -5.59375 C 2.445312 -5.21875 2.28125 -4.585938 2.28125 -3.703125 C 2.28125 -2.804688 2.453125 -2.171875 2.796875 -1.796875 C 3.140625 -1.429688 3.671875 -1.25 4.390625 -1.25 C 4.679688 -1.25 5 -1.304688 5.34375 -1.421875 C 5.695312 -1.535156 6.054688 -1.707031 6.421875 -1.9375 L 6.421875 -0.375 C 6.117188 -0.21875 5.75 -0.09375 5.3125 0 C 4.875 0.09375 4.457031 0.140625 4.0625 0.140625 Z M 4.0625 0.140625"/></g><g id="c"><path d="M 0.78125 -7.40625 L 3.765625 -7.40625 C 5.003906 -7.40625 5.925781 -7.09375 6.53125 -6.46875 C 7.132812 -5.851562 7.4375 -4.929688 7.4375 -3.703125 C 7.4375 -2.472656 7.132812 -1.546875 6.53125 -0.921875 C 5.925781 -0.304688 5.003906 0 3.765625 0 L 0.78125 0 Z M 3.5625 -1.390625 C 4.226562 -1.390625 4.734375 -1.578125 5.078125 -1.953125 C 5.421875 -2.328125 5.59375 -2.910156 5.59375 -3.703125 C 5.59375 -4.503906 5.421875 -5.085938 5.078125 -5.453125 C 4.734375 -5.828125 4.226562 -6.015625 3.5625 -6.015625 L 2.59375 -6.015625 L 2.59375 -1.390625 Z M 3.5625 -1.390625"/></g><g id="d"><path d="M 5.96875 -1.640625 L 5.96875 0 L 0.78125 0 L 0.78125 -1.265625 C 1.238281 -1.535156 1.71875 -1.890625 2.21875 -2.328125 C 2.726562 -2.765625 3.15625 -3.222656 3.5 -3.703125 C 3.84375 -4.191406 4.015625 -4.628906 4.015625 -5.015625 C 4.015625 -5.398438 3.898438 -5.6875 3.671875 -5.875 C 3.441406 -6.0625 3.132812 -6.15625 2.75 -6.15625 C 2.414062 -6.15625 2.101562 -6.082031 1.8125 -5.9375 C 1.519531 -5.800781 1.195312 -5.597656 0.84375 -5.328125 L 0.84375 -6.859375 C 1.59375 -7.316406 2.40625 -7.546875 3.28125 -7.546875 C 4.101562 -7.546875 4.734375 -7.347656 5.171875 -6.953125 C 5.609375 -6.554688 5.828125 -6 5.828125 -5.28125 C 5.828125 -4.789062 5.6875 -4.328125 5.40625 -3.890625 C 5.132812 -3.453125 4.804688 -3.0625 4.421875 -2.71875 C 4.035156 -2.382812 3.578125 -2.023438 3.046875 -1.640625 Z M 5.96875 -1.640625"/></g><g id="e"><path d="M 2.09375 -5.671875 L 0.65625 -4.859375 L 0.65625 -6.46875 L 2.296875 -7.40625 L 3.890625 -7.40625 L 3.890625 0 L 2.09375 0 Z M 2.09375 -5.671875"/></g><clipPath id="a"><path d="M 0.484375 0 L 29.515625 0 L 29.515625 29.03125 L 0.484375 29.03125 Z M 0.484375 0"/></clipPath></defs><g clip-path="url(#a)"><path fill="#FFF" d="M 0.484375 0 L 29.515625 0 L 29.515625 36.289062 L 0.484375 36.289062 Z M 0.484375 0"/><path fill="#FFF" d="M 0.484375 0 L 29.515625 0 L 29.515625 29.03125 L 0.484375 29.03125 Z M 0.484375 0"/><path fill="#38B6FF" d="M 0.484375 0 L 29.515625 0 L 29.515625 29.03125 L 0.484375 29.03125 Z M 0.484375 0"/></g><g fill="#FFF"><use x="1.562" y="17.853" xmlns:xlink="http://www.w3.org/1999/xlink" xlink:href="#b" xlink:type="simple" xlink:actuate="onLoad" xlink:show="embed"/></g><g fill="#FFF"><use x="8.561" y="17.853" xmlns:xlink="http://www.w3.org/1999/xlink" xlink:href="#c" xlink:type="simple" xlink:actuate="onLoad" xlink:show="embed"/></g><g fill="#FFF"><use x="16.46" y="17.853" xmlns:xlink="http://www.w3.org/1999/xlink" xlink:href="#d" xlink:type="simple" xlink:actuate="onLoad" xlink:show="embed"/></g><g fill="#FFF"><use x="23.214" y="17.853" xmlns:xlink="http://www.w3.org/1999/xlink" xlink:href="#e" xlink:type="simple" xlink:actuate="onLoad" xlink:show="embed"/></g></svg>